<svg viewBox="0 0 1051 1054.968" xmlns="http://www.w3.org/2000/svg"><path d="M361.665 21.333H689.09v58.5c.214 52.937 43.176 95.768 96.142 95.768 17.626 0 34.144-4.742 48.348-13.022l-.457.246 52.107-30.384 165.527 288.334-56.28 26.53c-29.07 16.788-48.322 47.718-48.322 83.143 0 35.792 19.65 66.994 48.752 83.405l.478.248.998.544 53.558 32.108-163.757 285.296-52.424-30.067c-13.682-7.936-30.104-12.62-47.62-12.62-52.927 0-95.865 42.768-96.14 95.63v60.34H362.574v-60.314c-.213-52.936-43.175-95.767-96.14-95.767-17.627 0-34.145 4.742-48.35 13.022l.458-.246-52.107 30.203L2.268 646.252l53.105-30.203c29.58-16.66 49.23-47.862 49.23-83.653 0-35.426-19.25-66.355-47.862-82.897l-.46-.246L0 422.68 165.53 134.344l52.243 30.294c13.714 7.984 30.184 12.697 47.755 12.697 52.97 0 95.935-42.838 96.14-95.76v-.02zm259.72 68.025H429.462c-4.43 87.118-76.146 156.077-163.967 156.077-27.342 0-53.124-6.684-75.8-18.508l.91.43L95.37 393.385c46.746 29.368 77.362 80.653 77.362 139.088s-30.616 109.72-76.682 138.69l-.68.398 96.323 167.795c21.734-11.35 47.47-18.01 74.76-18.01 87.782 0 159.472 68.896 163.945 155.565l.016.4H622.2c4.454-87.1 76.16-156.033 163.964-156.033 27.307 0 53.058 6.667 75.712 18.463l-.91-.43 96.596-168.294c-47.963-29.127-79.514-81.08-79.514-140.4 0-58.407 30.585-109.67 76.613-138.647l.68-.4-95.235-166.026c-21.783 11.412-47.585 18.108-74.95 18.108-87.147 0-158.433-67.902-163.838-153.684l-.024-.474zm-96.007 191.83c90.416 0 163.713 73.297 163.713 163.713S615.795 608.615 525.38 608.615c-90.416 0-163.713-73.297-163.713-163.713.103-90.374 73.338-163.61 163.703-163.712h.01zm0 259.4c52.847 0 95.688-42.84 95.688-95.687s-42.84-95.687-95.688-95.687c-52.847 0-95.688 42.84-95.688 95.688.052 52.827 42.862 95.638 95.683 95.69h.005zm250.33 318.81h-68.024v-68.024c0-100.685-81.62-182.306-182.306-182.306s-182.306 81.62-182.306 182.306V859.4h-68.025v-68.026c0-138.254 112.077-250.33 250.33-250.33S775.71 653.12 775.71 791.373z"/></svg>